<?xml version="1.0" encoding="UTF-8" standalone="no"?>
<svg
   xmlns:dc="http://purl.org/dc/elements/1.1/"
   xmlns:cc="http://creativecommons.org/ns#"
   xmlns:rdf="http://www.w3.org/1999/02/22-rdf-syntax-ns#"
   xmlns:svg="http://www.w3.org/2000/svg"
   xmlns="http://www.w3.org/2000/svg"
   viewBox="0 0 539 408"
   height="408"
   width="539"
   xml:space="preserve"
   version="1.1"
   id="svg14798"><metadata
     id="metadata14804"><rdf:RDF><cc:Work
         rdf:about=""><dc:format>image/svg+xml</dc:format><dc:type
           rdf:resource="http://purl.org/dc/dcmitype/StillImage" /><dc:title></dc:title></cc:Work></rdf:RDF></metadata><defs
     id="defs14802" /><g
     transform="matrix(1.25,0,0,-1.25,0,408)"
     id="g14806"><g
       transform="matrix(0.09190352,0,0,0.08150291,-64.415525,-162.23168)"
       id="g15571"><path
         id="path15573"
         style="fill:#ffffff;fill-opacity:1;fill-rule:nonzero;stroke:none"
         d="m 928.801,2285.2 4463.999,0 L 928.801,5806" /><path
         id="path15575"
         style="fill:#ffffff;fill-opacity:1;fill-rule:nonzero;stroke:none"
         d="m 5392.8,2285.2 0,3520.8 -4463.999,0" /><g
         transform="scale(10,10)"
         id="g15577"><text
           id="text15579"
           style="font-variant:normal;font-weight:normal;font-size:10px;font-family:Helvetica;-inkscape-font-specification:Helvetica;writing-mode:lr-tb;fill:#000000;fill-opacity:1;fill-rule:nonzero;stroke:none"
           transform="matrix(1,0,0,-1,151.161,213.519)"><tspan
             id="tspan15581"
             y="0"
             x="0 5.5599999 8.3400002 15.01 17.790001 23.35 26.68 142.136 147.696 150.476 159.366 162.146 167.70599 170.48599 173.81599 176.036 181.59599 184.37601 281.2063 286.7663 289.5463 298.43631 301.21631 306.77631 309.5563 312.88629 318.44629 324.00629 329.56631 335.12631 337.34631 342.90631">n &amp; b-1n % b (int)n % b (double)</tspan><tspan
             id="tspan15583"
             y="-10.0012"
             x="-68.845299">0</tspan><tspan
             id="tspan15585"
             y="-98.021103"
             x="-68.845299">2</tspan><tspan
             id="tspan15587"
             y="-186.0414"
             x="-68.845299">4</tspan><tspan
             id="tspan15589"
             y="-274.06131"
             x="-68.845299">6</tspan><tspan
             id="tspan15591"
             y="-362.08121"
             x="-68.845299">8</tspan><tspan
             id="tspan15593"
             y="12.9998"
             x="127.9607 136.2907 141.85069 147.41071 152.9707 155.1907 160.7507 163.5307 171.8607 177.4207 180.2007 185.7607 191.32069 196.88071">Modulo Methods</tspan></text>
<text
           id="text15595"
           style="font-variant:normal;font-weight:normal;font-size:10px;font-family:Helvetica;-inkscape-font-specification:Helvetica;writing-mode:lr-tb;fill:#000000;fill-opacity:1;fill-rule:nonzero;stroke:none"
           transform="matrix(0,1,1,0,77.8754,369.557)"><tspan
             id="tspan15597"
             y="0"
             x="0 8.3299999 13.89 19.450001 25.01 27.790001 33.900002 36.119999 44.450001 50.009998 52.790001 56.119999 61.68 66.68">Mean Time (ns)</tspan></text>
</g><path
         id="path15599"
         style="fill:none;stroke:#000000;stroke-width:5;stroke-linecap:butt;stroke-linejoin:miter;stroke-miterlimit:10;stroke-dasharray:160, 0;stroke-dashoffset:0;stroke-opacity:1"
         d="m 928.801,2285.2 4463.999,0" /><path
         id="path15601"
         style="fill:none;stroke:#000000;stroke-width:5;stroke-linecap:butt;stroke-linejoin:miter;stroke-miterlimit:10;stroke-dasharray:160, 0;stroke-dashoffset:0;stroke-opacity:1"
         d="m 928.801,5806 4463.999,0" /><path
         id="path15603"
         style="fill:none;stroke:#000000;stroke-width:5;stroke-linecap:butt;stroke-linejoin:miter;stroke-miterlimit:10;stroke-dasharray:160, 0;stroke-dashoffset:0;stroke-opacity:1"
         d="m 928.801,2285.2 0,3520.8" /><path
         id="path15605"
         style="fill:none;stroke:#000000;stroke-width:5;stroke-linecap:butt;stroke-linejoin:miter;stroke-miterlimit:10;stroke-dasharray:160, 0;stroke-dashoffset:0;stroke-opacity:1"
         d="m 5392.8,2285.2 0,3520.8" /><path
         id="path15607"
         style="fill:none;stroke:#000000;stroke-width:5;stroke-linecap:butt;stroke-linejoin:miter;stroke-miterlimit:10;stroke-dasharray:160, 0;stroke-dashoffset:0;stroke-opacity:1"
         d="m 1672.8,5806 0,-44.65" /><path
         id="path15609"
         style="fill:none;stroke:#000000;stroke-width:5;stroke-linecap:butt;stroke-linejoin:miter;stroke-miterlimit:10;stroke-dasharray:160, 0;stroke-dashoffset:0;stroke-opacity:1"
         d="m 3160.8,5806 0,-44.65" /><path
         id="path15611"
         style="fill:none;stroke:#000000;stroke-width:5;stroke-linecap:butt;stroke-linejoin:miter;stroke-miterlimit:10;stroke-dasharray:160, 0;stroke-dashoffset:0;stroke-opacity:1"
         d="m 4648.8,5806 0,-44.65" /><path
         id="path15613"
         style="fill:none;stroke:#000000;stroke-width:5;stroke-linecap:butt;stroke-linejoin:miter;stroke-miterlimit:10;stroke-dasharray:160, 0;stroke-dashoffset:0;stroke-opacity:1"
         d="m 928.801,2285.2 44.679,0" /><path
         id="path15615"
         style="fill:none;stroke:#000000;stroke-width:5;stroke-linecap:butt;stroke-linejoin:miter;stroke-miterlimit:10;stroke-dasharray:160, 0;stroke-dashoffset:0;stroke-opacity:1"
         d="m 5392.8,2285.2 -44.68,0" /><path
         id="path15617"
         style="fill:none;stroke:#000000;stroke-width:5;stroke-linecap:butt;stroke-linejoin:miter;stroke-miterlimit:10;stroke-dasharray:160, 0;stroke-dashoffset:0;stroke-opacity:1"
         d="m 928.801,3165.4 44.679,0" /><path
         id="path15619"
         style="fill:none;stroke:#000000;stroke-width:5;stroke-linecap:butt;stroke-linejoin:miter;stroke-miterlimit:10;stroke-dasharray:160, 0;stroke-dashoffset:0;stroke-opacity:1"
         d="m 5392.8,3165.4 -44.68,0" /><path
         id="path15621"
         style="fill:none;stroke:#000000;stroke-width:5;stroke-linecap:butt;stroke-linejoin:miter;stroke-miterlimit:10;stroke-dasharray:160, 0;stroke-dashoffset:0;stroke-opacity:1"
         d="m 928.801,4045.6 44.679,0" /><path
         id="path15623"
         style="fill:none;stroke:#000000;stroke-width:5;stroke-linecap:butt;stroke-linejoin:miter;stroke-miterlimit:10;stroke-dasharray:160, 0;stroke-dashoffset:0;stroke-opacity:1"
         d="m 5392.8,4045.6 -44.68,0" /><path
         id="path15625"
         style="fill:none;stroke:#000000;stroke-width:5;stroke-linecap:butt;stroke-linejoin:miter;stroke-miterlimit:10;stroke-dasharray:160, 0;stroke-dashoffset:0;stroke-opacity:1"
         d="m 928.801,4925.8 44.679,0" /><path
         id="path15627"
         style="fill:none;stroke:#000000;stroke-width:5;stroke-linecap:butt;stroke-linejoin:miter;stroke-miterlimit:10;stroke-dasharray:160, 0;stroke-dashoffset:0;stroke-opacity:1"
         d="m 5392.8,4925.8 -44.68,0" /><path
         id="path15629"
         style="fill:none;stroke:#000000;stroke-width:5;stroke-linecap:butt;stroke-linejoin:miter;stroke-miterlimit:10;stroke-dasharray:160, 0;stroke-dashoffset:0;stroke-opacity:1"
         d="m 928.801,5806 44.679,0" /><path
         id="path15631"
         style="fill:none;stroke:#000000;stroke-width:5;stroke-linecap:butt;stroke-linejoin:miter;stroke-miterlimit:10;stroke-dasharray:160, 0;stroke-dashoffset:0;stroke-opacity:1"
         d="m 5392.8,5806 -44.68,0" /><path
         id="path15633"
         style="fill:#000080;fill-opacity:1;fill-rule:nonzero;stroke:none"
         d="m 2268,2285.2 -1190.4,699.32 0,-699.32" /><path
         id="path15635"
         style="fill:#000080;fill-opacity:1;fill-rule:nonzero;stroke:none"
         d="M 1077.6,2984.52 2268,2285.2 l 0,699.32" /><path
         id="path15637"
         style="fill:#000080;fill-opacity:1;fill-rule:nonzero;stroke:none"
         d="m 3756,2285.2 -1190.4,859.96 0,-859.96" /><path
         id="path15639"
         style="fill:#000080;fill-opacity:1;fill-rule:nonzero;stroke:none"
         d="M 2565.6,3145.16 3756,2285.2 l 0,859.96" /><path
         id="path15641"
         style="fill:#000080;fill-opacity:1;fill-rule:nonzero;stroke:none"
         d="m 5244,2285.2 -1190.4,3515.08 0,-3515.08" /><path
         id="path15643"
         style="fill:#000080;fill-opacity:1;fill-rule:nonzero;stroke:none"
         d="M 4053.6,5800.28 5244,2285.2 l 0,3515.08" /><g
         transform="scale(10,10)"
         id="g15645"><text
           id="text15647"
           style="font-variant:normal;font-weight:normal;font-size:10px;font-family:Helvetica;-inkscape-font-specification:Helvetica;writing-mode:lr-tb;fill:#000000;fill-opacity:1;fill-rule:nonzero;stroke:none"
           transform="matrix(1,0,0,-1,226.334,590.6)"><tspan
             id="tspan15649"
             y="0"
             x="0 7.2199998 12.78 21.110001 26.67 32.23 35.560001 37.779999 42.779999 45 50.560001 56.119999 58.900002 64.459999 67.239998 70.019997 78.349998 83.910004 89.470001 95.029999 97.25 102.81 105.59 112.26 117.26 122.82 127.82 133.38 136.16 138.38 143.94 149.5 152.28 158.39 160.61 168.94 174.5">Comparision of Modulo Execution Times</tspan></text>
</g><path
         id="path15651"
         style="fill:none;stroke:#000000;stroke-width:5;stroke-linecap:butt;stroke-linejoin:miter;stroke-miterlimit:10;stroke-dasharray:none;stroke-opacity:1"
         d="m 2268,2984.52 -1190.4,0 0,-699.32 1190.4,0 0,699.32" /><path
         id="path15653"
         style="fill:none;stroke:#000000;stroke-width:5;stroke-linecap:butt;stroke-linejoin:miter;stroke-miterlimit:10;stroke-dasharray:none;stroke-opacity:1"
         d="m 3756,3145.16 -1190.4,0 0,-859.96 1190.4,0 0,859.96" /><path
         id="path15655"
         style="fill:none;stroke:#000000;stroke-width:5;stroke-linecap:butt;stroke-linejoin:miter;stroke-miterlimit:10;stroke-dasharray:none;stroke-opacity:1"
         d="m 5244,5800.28 -1190.4,0 0,-3515.08 1190.4,0 0,3515.08" /><path
         id="path15657"
         style="fill:none;stroke:#000000;stroke-width:5;stroke-linecap:butt;stroke-linejoin:miter;stroke-miterlimit:10;stroke-dasharray:none;stroke-opacity:1"
         d="m 928.801,2285.2 4463.999,0" /></g></g></svg>